<svg xmlns="http://www.w3.org/2000/svg" viewBox="0 0 661.87 203"><defs><style>.cls-1{fill:#414042;}.cls-2{fill:#006bff;}</style></defs><g id="Layer_2" data-name="Layer 2"><g id="Layer_1-2" data-name="Layer 1"><path class="cls-1" d="M228.2,92V6.83h33.31A35,35,0,0,1,278,10.45,25.32,25.32,0,0,1,288.5,20.51a29.71,29.71,0,0,1,3.63,14.88,29.16,29.16,0,0,1-3.69,14.85,25.46,25.46,0,0,1-10.59,10q-6.92,3.6-16.69,3.6H239.28V49.62h19.54a18.47,18.47,0,0,0,8.6-1.8,12,12,0,0,0,5.17-5,15.55,15.55,0,0,0,1.71-7.43A15.33,15.33,0,0,0,272.59,28a11.89,11.89,0,0,0-5.17-4.91,18.87,18.87,0,0,0-8.65-1.77H245.68V92Z"/><path class="cls-1" d="M303.16,92V28.88h16.5V39.79h.58A16,16,0,0,1,326,31.08a15.56,15.56,0,0,1,9.48-2.94c.92,0,1.87,0,2.86.11a21.27,21.27,0,0,1,2.57.34V43.67a17.83,17.83,0,0,0-3.23-.54c-1.43-.13-2.81-.2-4.14-.2a14.06,14.06,0,0,0-6.83,1.66,11.87,11.87,0,0,0-4.77,4.68,14.29,14.29,0,0,0-1.71,7.14V92Z"/><path class="cls-1" d="M376.16,93.2a33.09,33.09,0,0,1-16.65-4,27.24,27.24,0,0,1-10.8-11.32,36.81,36.81,0,0,1-3.8-17.19,36.88,36.88,0,0,1,3.78-17.11,28.11,28.11,0,0,1,10.62-11.48A30.35,30.35,0,0,1,375.36,28,33,33,0,0,1,387.13,30a27.16,27.16,0,0,1,9.52,6.08A27.5,27.5,0,0,1,403,46.16a39.63,39.63,0,0,1,2.25,13.91v4.74H351.71V54.07H397L389,56.87a21.66,21.66,0,0,0-1.54-8.51,12.23,12.23,0,0,0-4.55-5.57,13.12,13.12,0,0,0-7.39-2,13.42,13.42,0,0,0-7.49,2,12.79,12.79,0,0,0-4.71,5.48,18.62,18.62,0,0,0-1.63,8v7.54a20.3,20.3,0,0,0,1.83,9,12.78,12.78,0,0,0,5.17,5.62,15.39,15.39,0,0,0,7.8,1.92,16.33,16.33,0,0,0,5.51-.89A11.45,11.45,0,0,0,386.25,77a11,11,0,0,0,2.65-4.14L404.39,75A22.26,22.26,0,0,1,399,84.61,26.15,26.15,0,0,1,389.39,91,36.4,36.4,0,0,1,376.16,93.2Z"/><path class="cls-1" d="M441.63,93.26A38.62,38.62,0,0,1,428,91a23.77,23.77,0,0,1-9.71-6.55,20,20,0,0,1-4.71-10.28L429.58,72a11,11,0,0,0,4.17,6.57,16.47,16.47,0,0,0,15.88.37,5.5,5.5,0,0,0,2.8-4.71,4.89,4.89,0,0,0-2-4,15,15,0,0,0-6.08-2.43l-10.91-2.17q-9.15-1.89-13.71-6.4a15.65,15.65,0,0,1-4.57-11.65,16.89,16.89,0,0,1,3.28-10.4,21,21,0,0,1,9.26-6.8,37.26,37.26,0,0,1,14-2.4,36.77,36.77,0,0,1,13.26,2.17,22.08,22.08,0,0,1,9,6.17,19.26,19.26,0,0,1,4.31,9.43L453,47.84a9.64,9.64,0,0,0-3.58-5.51A11.74,11.74,0,0,0,442,40.19a12.73,12.73,0,0,0-7.06,1.8,5.37,5.37,0,0,0-2.77,4.66,5.1,5.1,0,0,0,1.89,4,13.52,13.52,0,0,0,6.17,2.49l11.42,2.28q9.25,1.83,13.74,6.06a14.45,14.45,0,0,1,4.49,11,17.3,17.3,0,0,1-3.6,10.89,23.5,23.5,0,0,1-10,7.25A38.43,38.43,0,0,1,441.63,93.26Z"/><path class="cls-1" d="M506.13,93.26A38.62,38.62,0,0,1,492.45,91a23.77,23.77,0,0,1-9.71-6.55A20.14,20.14,0,0,1,478,74.18L494.08,72a11,11,0,0,0,4.17,6.57,16.47,16.47,0,0,0,15.88.37,5.5,5.5,0,0,0,2.8-4.71,4.89,4.89,0,0,0-2-4,15,15,0,0,0-6.08-2.43l-10.91-2.17q-9.15-1.89-13.72-6.4a15.68,15.68,0,0,1-4.57-11.65,16.89,16.89,0,0,1,3.29-10.4,21,21,0,0,1,9.25-6.8,37.32,37.32,0,0,1,14-2.4,36.81,36.81,0,0,1,13.26,2.17,22,22,0,0,1,9,6.17,19.18,19.18,0,0,1,4.32,9.43l-15.26,2.11a9.57,9.57,0,0,0-3.57-5.51,11.74,11.74,0,0,0-7.39-2.14,12.73,12.73,0,0,0-7.06,1.8,5.37,5.37,0,0,0-2.77,4.66,5.12,5.12,0,0,0,1.88,4,13.62,13.62,0,0,0,6.17,2.49l11.43,2.28q9.25,1.83,13.74,6.06a14.45,14.45,0,0,1,4.48,11,17.3,17.3,0,0,1-3.6,10.89,23.41,23.41,0,0,1-10,7.25A38.46,38.46,0,0,1,506.13,93.26Z"/><path class="cls-1" d="M228.2,193V107.83h33.42a36.64,36.64,0,0,1,16.51,3.42,24.44,24.44,0,0,1,10.48,9.66,28.62,28.62,0,0,1,3.63,14.68,27.44,27.44,0,0,1-3.71,14.51,24.05,24.05,0,0,1-10.68,9.37,39.48,39.48,0,0,1-16.8,3.26H238.6V148.62h20.34a21.28,21.28,0,0,0,8.57-1.52,11,11,0,0,0,5.17-4.43,13.56,13.56,0,0,0,1.74-7.08,14,14,0,0,0-1.74-7.23,11.34,11.34,0,0,0-5.17-4.51,20.74,20.74,0,0,0-8.63-1.57h-13.2V193Zm47.59,0-20.45-38.68h18.85L295,193Z"/><path class="cls-1" d="M331.38,194.2a33.11,33.11,0,0,1-16.66-4,27.16,27.16,0,0,1-10.79-11.32,36.69,36.69,0,0,1-3.8-17.19,36.88,36.88,0,0,1,3.77-17.11,28.11,28.11,0,0,1,10.62-11.48A30.37,30.37,0,0,1,330.58,129,33,33,0,0,1,342.35,131a27.21,27.21,0,0,1,9.51,6.08,27.5,27.5,0,0,1,6.34,10.06,39.63,39.63,0,0,1,2.25,13.91v4.74H306.93V155.07h45.24l-7.94,2.8a21.48,21.48,0,0,0-1.54-8.51,12.21,12.21,0,0,0-4.54-5.57,13.15,13.15,0,0,0-7.4-2,13.42,13.42,0,0,0-7.49,2,12.93,12.93,0,0,0-4.71,5.48,18.77,18.77,0,0,0-1.63,8v7.54a20.3,20.3,0,0,0,1.83,9,12.78,12.78,0,0,0,5.17,5.62,15.39,15.39,0,0,0,7.8,1.92,16.33,16.33,0,0,0,5.51-.89,11.45,11.45,0,0,0,4.23-2.57,11,11,0,0,0,2.66-4.14L359.6,176a22.24,22.24,0,0,1-5.34,9.57A26.11,26.11,0,0,1,344.6,192,36.31,36.31,0,0,1,331.38,194.2Z"/><path class="cls-1" d="M388.62,107.83V193h-17V107.83Z"/><path class="cls-1" d="M431.24,194.2a33.11,33.11,0,0,1-16.66-4,27.16,27.16,0,0,1-10.79-11.32A36.69,36.69,0,0,1,400,161.7a36.88,36.88,0,0,1,3.77-17.11,28.11,28.11,0,0,1,10.62-11.48A30.39,30.39,0,0,1,430.44,129,33,33,0,0,1,442.21,131a27.21,27.21,0,0,1,9.51,6.08,27.5,27.5,0,0,1,6.34,10.06,39.63,39.63,0,0,1,2.26,13.91v4.74H406.79V155.07H452l-7.94,2.8a21.48,21.48,0,0,0-1.54-8.51,12.21,12.21,0,0,0-4.54-5.57,13.15,13.15,0,0,0-7.4-2,13.44,13.44,0,0,0-7.49,2,12.93,12.93,0,0,0-4.71,5.48,18.77,18.77,0,0,0-1.63,8v7.54a20.3,20.3,0,0,0,1.83,9,12.78,12.78,0,0,0,5.17,5.62,15.39,15.39,0,0,0,7.8,1.92,16.29,16.29,0,0,0,5.51-.89,11.45,11.45,0,0,0,4.23-2.57,11,11,0,0,0,2.66-4.14L459.46,176a22.24,22.24,0,0,1-5.34,9.57,26.11,26.11,0,0,1-9.66,6.34A36.31,36.31,0,0,1,431.24,194.2Z"/><path class="cls-1" d="M490.48,194.15A26.59,26.59,0,0,1,479.63,192a16.89,16.89,0,0,1-7.55-6.31,18.73,18.73,0,0,1-2.74-10.42,18.29,18.29,0,0,1,1.94-8.86,15.68,15.68,0,0,1,5.32-5.71,26.25,26.25,0,0,1,7.68-3.29,59.63,59.63,0,0,1,9.06-1.57q5.54-.57,8.91-1.06a12.25,12.25,0,0,0,4.91-1.51,3.44,3.44,0,0,0,1.54-3.08v-.29a8.21,8.21,0,0,0-1.17-4.48,7.53,7.53,0,0,0-3.4-2.86,13.12,13.12,0,0,0-5.42-1,14.83,14.83,0,0,0-5.69,1,10.7,10.7,0,0,0-3.94,2.68,9.85,9.85,0,0,0-2.14,3.8l-15.71-2a21.29,21.29,0,0,1,5-9.77,23.83,23.83,0,0,1,9.49-6.19A37.48,37.48,0,0,1,498.88,129a40.13,40.13,0,0,1,10.19,1.26,26.46,26.46,0,0,1,8.6,3.89,18.71,18.71,0,0,1,5.92,6.65,20.37,20.37,0,0,1,2.14,9.63V193H509.45v-8.8h-.52a17.83,17.83,0,0,1-10.17,8.74A24.68,24.68,0,0,1,490.48,194.15Zm4.8-11.94a15,15,0,0,0,7.08-1.6,12.32,12.32,0,0,0,4.74-4.29,10.93,10.93,0,0,0,1.72-6v-6.69a10.29,10.29,0,0,1-2.2.92,30,30,0,0,1-3.29.8c-1.22.23-2.44.44-3.68.63l-3.4.51a22.9,22.9,0,0,0-5.48,1.46,9,9,0,0,0-3.72,2.68,7.35,7.35,0,0,0-.08,8.26,7.54,7.54,0,0,0,3.37,2.51A13.24,13.24,0,0,0,495.28,182.21Z"/><path class="cls-1" d="M565,194.26A38.64,38.64,0,0,1,551.29,192a23.83,23.83,0,0,1-9.71-6.55,20.2,20.2,0,0,1-4.71-10.28l16-2.17a11.08,11.08,0,0,0,4.17,6.57A16.47,16.47,0,0,0,573,180a5.5,5.5,0,0,0,2.8-4.71,4.86,4.86,0,0,0-2-4,15,15,0,0,0-6.08-2.43l-10.91-2.17q-9.13-1.89-13.71-6.4a15.65,15.65,0,0,1-4.57-11.65,16.89,16.89,0,0,1,3.28-10.4,21,21,0,0,1,9.26-6.8,37.28,37.28,0,0,1,14-2.4,36.75,36.75,0,0,1,13.25,2.17,22.08,22.08,0,0,1,9,6.17,19.26,19.26,0,0,1,4.31,9.43l-15.25,2.11a9.67,9.67,0,0,0-3.57-5.51,11.79,11.79,0,0,0-7.4-2.14,12.73,12.73,0,0,0-7.06,1.8,5.39,5.39,0,0,0-2.77,4.66,5.1,5.1,0,0,0,1.89,4,13.52,13.52,0,0,0,6.17,2.49L575,156.44q9.25,1.83,13.74,6.06a14.45,14.45,0,0,1,4.49,11,17.3,17.3,0,0,1-3.6,10.89,23.44,23.44,0,0,1-10,7.25A38.41,38.41,0,0,1,565,194.26Z"/><path class="cls-1" d="M632.79,194.2a33.11,33.11,0,0,1-16.66-4,27.16,27.16,0,0,1-10.79-11.32,36.69,36.69,0,0,1-3.8-17.19,36.88,36.88,0,0,1,3.77-17.11,28.11,28.11,0,0,1,10.62-11.48A30.39,30.39,0,0,1,632,129,33,33,0,0,1,643.76,131a27.21,27.21,0,0,1,9.51,6.08,27.5,27.5,0,0,1,6.34,10.06,39.63,39.63,0,0,1,2.26,13.91v4.74H608.34V155.07h45.24l-7.94,2.8a21.48,21.48,0,0,0-1.54-8.51,12.21,12.21,0,0,0-4.54-5.57,13.15,13.15,0,0,0-7.4-2,13.44,13.44,0,0,0-7.49,2A12.93,12.93,0,0,0,620,149.3a18.77,18.77,0,0,0-1.63,8v7.54a20.3,20.3,0,0,0,1.83,9,12.78,12.78,0,0,0,5.17,5.62,15.39,15.39,0,0,0,7.8,1.92,16.29,16.29,0,0,0,5.51-.89,11.45,11.45,0,0,0,4.23-2.57,11,11,0,0,0,2.66-4.14L661,176a22.24,22.24,0,0,1-5.34,9.57A26.11,26.11,0,0,1,646,192,36.31,36.31,0,0,1,632.79,194.2Z"/><path class="cls-2" d="M0,35.36V167.64A35.36,35.36,0,0,0,35.36,203H167.64A35.36,35.36,0,0,0,203,167.64V35.36A35.36,35.36,0,0,0,167.64,0H35.36A35.36,35.36,0,0,0,0,35.36ZM16.92,159.5V43.5A26.58,26.58,0,0,1,43.5,16.92h52c17.4,0,33,11.6,37.16,28.5.15.62.29,1.25.43,1.89a52,52,0,0,1-5.82,35.59,3.67,3.67,0,0,1-5.85.72L96.74,57.71a3.67,3.67,0,0,0-4.91-.36L88.4,60C65.49,77.41,53.2,98,58.56,111.91a19.69,19.69,0,0,0,5,7.24l60.67,60.68a3.66,3.66,0,0,1-2.59,6.25H43.5A26.58,26.58,0,0,1,16.92,159.5Zm91-58.13C96.07,107.3,83.19,108,76.8,106.61a4,4,0,0,1-2.87-5.34C75.7,97,80.35,89.8,90,80.85a4,4,0,0,1,5.58.19l13.37,14A4,4,0,0,1,107.88,101.37Zm51.62,84.71h0a12.26,12.26,0,0,1-8.69-3.6L96.89,128.57a3.66,3.66,0,0,1,1.81-6.16,72.27,72.27,0,0,0,25.08-10.86c20.73-14.6,31.14-41.78,25.89-67.61a65.77,65.77,0,0,0-8.49-21.44,3.65,3.65,0,0,1,3.11-5.58H159.5A26.58,26.58,0,0,1,186.08,43.5v116A26.58,26.58,0,0,1,159.5,186.08Z"/></g></g></svg>